<mxfile host="app.diagrams.net" modified="2024-07-23T18:43:40.615Z" agent="Mozilla/5.0 (Windows NT 10.0; Win64; x64) AppleWebKit/537.36 (KHTML, like Gecko) Chrome/126.0.0.0 Safari/537.36" etag="suDV9qIsXjC6r296ZvRQ" version="24.7.2" type="github">
  <diagram name="Page-1" id="uqe_mdtUUAaG_SBx0GVA">
    <mxGraphModel dx="1434" dy="738" grid="1" gridSize="10" guides="1" tooltips="1" connect="1" arrows="1" fold="1" page="1" pageScale="1" pageWidth="850" pageHeight="1100" math="0" shadow="0">
      <root>
        <mxCell id="0" />
        <mxCell id="1" parent="0" />
        <mxCell id="PjiC9l44Q3XiG8fzUMRT-4" style="edgeStyle=orthogonalEdgeStyle;rounded=0;orthogonalLoop=1;jettySize=auto;html=1;" edge="1" parent="1" source="PjiC9l44Q3XiG8fzUMRT-2" target="PjiC9l44Q3XiG8fzUMRT-14">
          <mxGeometry relative="1" as="geometry">
            <mxPoint x="100.03999999999996" y="436" as="targetPoint" />
          </mxGeometry>
        </mxCell>
        <mxCell id="PjiC9l44Q3XiG8fzUMRT-2" value="&lt;b&gt;Dynatrace Synthetic Monitoring&lt;/b&gt;&lt;br&gt;&lt;br&gt;Trigger API with synthetic transaction header" style="rounded=1;whiteSpace=wrap;html=1;" vertex="1" parent="1">
          <mxGeometry x="30" y="640" width="140" height="90" as="geometry" />
        </mxCell>
        <mxCell id="PjiC9l44Q3XiG8fzUMRT-18" style="edgeStyle=orthogonalEdgeStyle;rounded=0;orthogonalLoop=1;jettySize=auto;html=1;exitX=0.5;exitY=0;exitDx=0;exitDy=0;exitPerimeter=0;entryX=0;entryY=0.5;entryDx=0;entryDy=0;dashed=1;" edge="1" parent="1" source="PjiC9l44Q3XiG8fzUMRT-5" target="PjiC9l44Q3XiG8fzUMRT-17">
          <mxGeometry relative="1" as="geometry" />
        </mxCell>
        <mxCell id="PjiC9l44Q3XiG8fzUMRT-5" value="&lt;b&gt;kaleyra-event&lt;/b&gt; topic" style="shape=cylinder3;whiteSpace=wrap;html=1;boundedLbl=1;backgroundOutline=1;size=15;rotation=0;direction=south;" vertex="1" parent="1">
          <mxGeometry x="287" y="447" width="173" height="50" as="geometry" />
        </mxCell>
        <mxCell id="PjiC9l44Q3XiG8fzUMRT-6" style="edgeStyle=orthogonalEdgeStyle;rounded=0;orthogonalLoop=1;jettySize=auto;html=1;entryX=0.5;entryY=1;entryDx=0;entryDy=0;entryPerimeter=0;exitX=1;exitY=0.5;exitDx=0;exitDy=0;" edge="1" parent="1" source="PjiC9l44Q3XiG8fzUMRT-14" target="PjiC9l44Q3XiG8fzUMRT-5">
          <mxGeometry relative="1" as="geometry">
            <mxPoint x="167" y="480" as="sourcePoint" />
          </mxGeometry>
        </mxCell>
        <mxCell id="PjiC9l44Q3XiG8fzUMRT-9" value="Send &lt;b&gt;&lt;font color=&quot;#a680b8&quot;&gt;request-id&lt;/font&gt;&lt;/b&gt;" style="edgeLabel;html=1;align=center;verticalAlign=middle;resizable=0;points=[];" vertex="1" connectable="0" parent="PjiC9l44Q3XiG8fzUMRT-6">
          <mxGeometry x="-0.0661" y="-4" relative="1" as="geometry">
            <mxPoint x="-1" y="-4" as="offset" />
          </mxGeometry>
        </mxCell>
        <mxCell id="PjiC9l44Q3XiG8fzUMRT-14" value="Core BS API" style="rounded=1;whiteSpace=wrap;html=1;" vertex="1" parent="1">
          <mxGeometry x="40" y="440" width="120" height="60" as="geometry" />
        </mxCell>
        <mxCell id="PjiC9l44Q3XiG8fzUMRT-25" value="" style="edgeStyle=orthogonalEdgeStyle;rounded=0;orthogonalLoop=1;jettySize=auto;html=1;" edge="1" parent="1" source="PjiC9l44Q3XiG8fzUMRT-17" target="PjiC9l44Q3XiG8fzUMRT-24">
          <mxGeometry relative="1" as="geometry">
            <Array as="points">
              <mxPoint x="610" y="400" />
              <mxPoint x="420" y="400" />
            </Array>
          </mxGeometry>
        </mxCell>
        <mxCell id="PjiC9l44Q3XiG8fzUMRT-31" value="" style="edgeStyle=orthogonalEdgeStyle;rounded=0;orthogonalLoop=1;jettySize=auto;html=1;" edge="1" parent="1" source="PjiC9l44Q3XiG8fzUMRT-17" target="PjiC9l44Q3XiG8fzUMRT-30">
          <mxGeometry relative="1" as="geometry">
            <Array as="points">
              <mxPoint x="610" y="400" />
              <mxPoint x="590" y="400" />
            </Array>
          </mxGeometry>
        </mxCell>
        <mxCell id="PjiC9l44Q3XiG8fzUMRT-40" value="" style="edgeStyle=orthogonalEdgeStyle;rounded=0;orthogonalLoop=1;jettySize=auto;html=1;" edge="1" parent="1" source="PjiC9l44Q3XiG8fzUMRT-17" target="PjiC9l44Q3XiG8fzUMRT-39">
          <mxGeometry relative="1" as="geometry" />
        </mxCell>
        <mxCell id="PjiC9l44Q3XiG8fzUMRT-17" value="&lt;b&gt;Kaleyra consumer&lt;/b&gt;" style="rounded=1;whiteSpace=wrap;html=1;" vertex="1" parent="1">
          <mxGeometry x="550" y="442" width="120" height="60" as="geometry" />
        </mxCell>
        <mxCell id="PjiC9l44Q3XiG8fzUMRT-55" style="edgeStyle=orthogonalEdgeStyle;rounded=0;orthogonalLoop=1;jettySize=auto;html=1;" edge="1" parent="1" source="PjiC9l44Q3XiG8fzUMRT-24" target="PjiC9l44Q3XiG8fzUMRT-54">
          <mxGeometry relative="1" as="geometry" />
        </mxCell>
        <mxCell id="PjiC9l44Q3XiG8fzUMRT-57" value="Trigger SMS&amp;nbsp;&lt;div&gt;to real phone&lt;br&gt;&lt;br&gt;How often&lt;/div&gt;&lt;div&gt;should SMS&lt;br&gt;be received?&lt;/div&gt;" style="edgeLabel;html=1;align=center;verticalAlign=middle;resizable=0;points=[];" vertex="1" connectable="0" parent="PjiC9l44Q3XiG8fzUMRT-55">
          <mxGeometry x="-0.0286" y="1" relative="1" as="geometry">
            <mxPoint as="offset" />
          </mxGeometry>
        </mxCell>
        <mxCell id="PjiC9l44Q3XiG8fzUMRT-24" value="&lt;b&gt;1.&lt;/b&gt; &lt;b&gt;Kaleyra Save Properties API&lt;/b&gt; (Trigger Multistep program)&lt;br&gt;&lt;br&gt;Inside multistep program logic, in addition to sending SMS,&lt;font style=&quot;font-weight: bold;&quot; color=&quot;#a680b8&quot;&gt;&amp;nbsp;request-id&lt;/font&gt;&amp;nbsp;gets copied to contact property &lt;b&gt;&lt;font color=&quot;#ea6b66&quot;&gt;validation-request-id&lt;/font&gt;&lt;/b&gt;" style="rounded=1;whiteSpace=wrap;html=1;" vertex="1" parent="1">
          <mxGeometry x="360" y="170" width="120" height="191" as="geometry" />
        </mxCell>
        <mxCell id="PjiC9l44Q3XiG8fzUMRT-28" style="edgeStyle=orthogonalEdgeStyle;rounded=0;orthogonalLoop=1;jettySize=auto;html=1;entryX=0.75;entryY=1;entryDx=0;entryDy=0;dashed=1;" edge="1" parent="1" source="PjiC9l44Q3XiG8fzUMRT-26" target="PjiC9l44Q3XiG8fzUMRT-17">
          <mxGeometry relative="1" as="geometry" />
        </mxCell>
        <mxCell id="PjiC9l44Q3XiG8fzUMRT-34" value="2. consume msg" style="edgeLabel;html=1;align=center;verticalAlign=middle;resizable=0;points=[];" vertex="1" connectable="0" parent="PjiC9l44Q3XiG8fzUMRT-28">
          <mxGeometry x="-0.1748" y="2" relative="1" as="geometry">
            <mxPoint as="offset" />
          </mxGeometry>
        </mxCell>
        <mxCell id="PjiC9l44Q3XiG8fzUMRT-26" value="&lt;b&gt;kaleyra-synthetic-transaction-event&lt;/b&gt;&amp;nbsp;topic" style="shape=cylinder3;whiteSpace=wrap;html=1;boundedLbl=1;backgroundOutline=1;size=15;rotation=0;direction=south;" vertex="1" parent="1">
          <mxGeometry x="287" y="550" width="177" height="50" as="geometry" />
        </mxCell>
        <mxCell id="PjiC9l44Q3XiG8fzUMRT-27" style="edgeStyle=orthogonalEdgeStyle;rounded=0;orthogonalLoop=1;jettySize=auto;html=1;entryX=0.02;entryY=0.585;entryDx=0;entryDy=0;entryPerimeter=0;" edge="1" parent="1" source="PjiC9l44Q3XiG8fzUMRT-17" target="PjiC9l44Q3XiG8fzUMRT-26">
          <mxGeometry relative="1" as="geometry">
            <Array as="points">
              <mxPoint x="520" y="530" />
              <mxPoint x="341" y="530" />
            </Array>
          </mxGeometry>
        </mxCell>
        <mxCell id="PjiC9l44Q3XiG8fzUMRT-32" value="1. Send&amp;nbsp;&lt;b&gt;&lt;font color=&quot;#a680b8&quot;&gt;request-id&lt;/font&gt;&lt;/b&gt;" style="edgeLabel;html=1;align=center;verticalAlign=middle;resizable=0;points=[];" vertex="1" connectable="0" parent="PjiC9l44Q3XiG8fzUMRT-27">
          <mxGeometry x="-0.0962" y="2" relative="1" as="geometry">
            <mxPoint as="offset" />
          </mxGeometry>
        </mxCell>
        <mxCell id="PjiC9l44Q3XiG8fzUMRT-30" value="&lt;b&gt;2. Kaleyra Get Properties API&lt;/b&gt;&lt;br&gt;&lt;br&gt;Obtain&amp;nbsp;&lt;b&gt;&lt;font color=&quot;#ea6b66&quot;&gt;validation-request-id&amp;nbsp;&lt;/font&gt;&lt;/b&gt;and compare with original&amp;nbsp;&lt;span style=&quot;color: rgb(166, 128, 184); font-weight: 700;&quot;&gt;request-id&lt;/span&gt;,which means MS program successfully executed" style="rounded=1;whiteSpace=wrap;html=1;" vertex="1" parent="1">
          <mxGeometry x="530" y="170" width="120" height="189" as="geometry" />
        </mxCell>
        <mxCell id="PjiC9l44Q3XiG8fzUMRT-39" value="&lt;b&gt;3.&lt;/b&gt;&amp;nbsp;Log success or error message indicating synthetic transaction was correctly executed or not&amp;nbsp;" style="ellipse;whiteSpace=wrap;html=1;rounded=1;" vertex="1" parent="1">
          <mxGeometry x="700" y="388" width="140" height="168" as="geometry" />
        </mxCell>
        <mxCell id="PjiC9l44Q3XiG8fzUMRT-42" style="edgeStyle=orthogonalEdgeStyle;rounded=0;orthogonalLoop=1;jettySize=auto;html=1;entryX=0.5;entryY=1;entryDx=0;entryDy=0;dashed=1;" edge="1" parent="1" source="PjiC9l44Q3XiG8fzUMRT-41" target="PjiC9l44Q3XiG8fzUMRT-39">
          <mxGeometry relative="1" as="geometry" />
        </mxCell>
        <mxCell id="PjiC9l44Q3XiG8fzUMRT-41" value="&lt;b&gt;Dynatrace Alerting&lt;/b&gt;&lt;br&gt;&lt;br&gt;Check for synthetic transaction error logs or lack of success logs" style="rounded=1;whiteSpace=wrap;html=1;" vertex="1" parent="1">
          <mxGeometry x="30" y="750" width="140" height="90" as="geometry" />
        </mxCell>
        <mxCell id="PjiC9l44Q3XiG8fzUMRT-45" value="" style="group" vertex="1" connectable="0" parent="1">
          <mxGeometry x="5" y="592" width="210" height="310" as="geometry" />
        </mxCell>
        <mxCell id="PjiC9l44Q3XiG8fzUMRT-43" value="" style="rounded=1;whiteSpace=wrap;html=1;fillColor=none;dashed=1;" vertex="1" parent="PjiC9l44Q3XiG8fzUMRT-45">
          <mxGeometry width="210" height="310" as="geometry" />
        </mxCell>
        <mxCell id="PjiC9l44Q3XiG8fzUMRT-44" value="&lt;b&gt;Dynatrace&lt;/b&gt;" style="text;html=1;align=center;verticalAlign=middle;whiteSpace=wrap;rounded=0;" vertex="1" parent="PjiC9l44Q3XiG8fzUMRT-45">
          <mxGeometry x="75" y="280" width="60" height="30" as="geometry" />
        </mxCell>
        <mxCell id="PjiC9l44Q3XiG8fzUMRT-54" value="Stakeholder real&amp;nbsp;&lt;div&gt;phone number&lt;/div&gt;" style="shape=umlActor;verticalLabelPosition=bottom;verticalAlign=top;html=1;outlineConnect=0;" vertex="1" parent="1">
          <mxGeometry x="90" y="215.5" width="60" height="100" as="geometry" />
        </mxCell>
        <mxCell id="PjiC9l44Q3XiG8fzUMRT-59" value="" style="group" vertex="1" connectable="0" parent="1">
          <mxGeometry x="60" y="160" width="240" height="240" as="geometry" />
        </mxCell>
        <mxCell id="PjiC9l44Q3XiG8fzUMRT-60" value="" style="rounded=1;whiteSpace=wrap;html=1;fillColor=none;dashed=1;strokeColor=#FF0000;strokeWidth=3;" vertex="1" parent="PjiC9l44Q3XiG8fzUMRT-59">
          <mxGeometry width="240.00000000000003" height="240" as="geometry" />
        </mxCell>
        <mxCell id="PjiC9l44Q3XiG8fzUMRT-61" value="&lt;b&gt;&lt;font color=&quot;#ff0000&quot;&gt;Questions/Decisions&lt;/font&gt;&lt;/b&gt;" style="text;html=1;align=center;verticalAlign=middle;whiteSpace=wrap;rounded=0;" vertex="1" parent="PjiC9l44Q3XiG8fzUMRT-59">
          <mxGeometry x="85.71428571428572" y="216.7741935483871" width="68.57142857142858" height="23.225806451612904" as="geometry" />
        </mxCell>
      </root>
    </mxGraphModel>
  </diagram>
</mxfile>
